# xmcd CD database file
#
# Track frame offsets:
#	150
#	20288
#	37997
#	55801
#	71080
#	90934
#	105413
#	123257
#	137523
#	156200
#	169554
#	182985
#	234082
#	253684
#	275990
#	291490
#	306151
#	322433
#	336627
#
# Disc length: 4685 seconds
#
# Revision: 0
# Processed by: cddbd v1.5.2PL0 Copyright (c) Steve Scherf et al.
# Submitted via: CDex 1.51
#
DISCID=16124b13
DTITLE=Barney Kessel - To Swing Or Not To Swing
DYEAR=1955
DGENRE=Jazz
TTITLE0=Begin The Blues
TTITLE1=Louisiana
TTITLE2=Happy Feeling
TTITLE3=Embaceable You
TTITLE4=Wail Stret
TTITLE5=Indiana
TTITLE6=Moten Swing
TTITLE7=Midnight Sun
TTITLE8=Contemporary Blues
TTITLE9=Don't Blame Me
TTITLE10=12th Qtreet Rag
TTITLE11=Let's Cook
TTITLE12=Time Remembered
TTITLE13=Just In Time
TTITLE14=Love Is Here To Stay
TTITLE15=On A Slow Boat To China
TTITLE16=My Old Flame
TTITLE17=A Foggy Day
TTITLE18=64 Bars On Wilshire
EXTD=YEAR: 1955
EXTT0=
EXTT1=
EXTT2=
EXTT3=
EXTT4=
EXTT5=
EXTT6=
EXTT7=
EXTT8=
EXTT9=
EXTT10=
EXTT11=
EXTT12=
EXTT13=
EXTT14=
EXTT15=
EXTT16=
EXTT17=
EXTT18=
PLAYORDER=
